#!OML:ASF Y:\EmotionMaleHayes\Project 1\Capture day 1\Session 1\Male1.ASF
:FULLY-SPECIFIED
:DEGREES
547
root 30.355 17.0255 -0.781111 800.995 80.815 808.072
lowerback 8.37724 1.10946 -13.138
upperback 3.57674 0.641491 -3.22194
thorax -0.998562 0.331437 3.91004
lowerneck -22.6613 1.46198 1.85233
upperneck 23.3858 1.65674 -0.431829
head 11.3878 0.912716 -0.187809
rclavicle 7.00716e-015 1.86858e-014
rhumerus -41.614 -0.55846 -85.4725
rradius 26.6248
rwrist 14.1095
rhand -4.89547 -32.3456
rfingers 7.12502
rthumb 20.8938 -61.2404
lclavicle 7.00716e-015 1.86858e-014
lhumerus -20.5926 -13.3955 87.0184
lradius 31.7655
lwrist -10.1558
lhand -16.6321 -27.65
lfingers 7.12502
lthumb 9.59028 2.11177
rfemur -11.2675 -3.35407 5.64441
rtibia 66.1844
rfoot -3.30872 -3.14462
rtoes 19.6424
lfemur 6.04444 1.49042 -31.9731
ltibia 10.4435
lfoot -11.1941 4.11287
ltoes 0.46757
548
root 30.4917 17.0368 -0.793528 802.424 80.7375 809.554
lowerback 8.35777 0.967396 -13.3721
upperback 3.64141 0.448568 -3.15838
thorax -0.885506 0.224979 4.12397
lowerneck -22.4198 1.6586 1.8691
upperneck 23.2971 1.90865 -0.338872
head 11.3107 1.04134 -0.11751
rclavicle -1.37658e-014 -9.85972e-014
rhumerus -42.4144 -0.954207 -85.0076
rradius 26.7475
rwrist 13.758
rhand -4.87759 -32.5635
rfingers 7.12502
rthumb 20.911 -61.4565
lclavicle -1.37658e-014 -9.85972e-014
lhumerus -19.9234 -14.1471 86.8885
lradius 32.4759
lwrist -9.67434
lhand -16.5613 -27.6249
lfingers 7.12502
lthumb 9.65866 2.13367
rfemur -12.542 -3.7926 5.63196
rtibia 65.8129
rfoot -4.4169 -3.41549
rtoes 18.2125
lfemur 6.88212 1.43144 -32.1607
ltibia 9.97743
lfoot -11.4154 3.87555
ltoes 0.944859
549
root 30.6294 17.0435 -0.803886 803.507 80.5608 810.766
lowerback 8.41734 0.862346 -13.7224
upperback 3.70532 0.283576 -3.09189
thorax -0.818321 0.134237 4.40096
lowerneck -22.6955 1.56714 1.82228
upperneck 23.6596 1.81675 -0.404918
head 11.4997 0.988516 -0.145108
rclavicle -1.81391e-015 -3.22031e-014
rhumerus -43.1062 -1.2577 -84.4909
rradius 26.6192
rwrist 13.4976
rhand -4.69985 -32.3574
rfingers 7.12502
rthumb 21.0818 -61.2314
lclavicle -1.81391e-015 -3.22031e-014
lhumerus -19.2884 -14.8242 86.7972
lradius 33.147
lwrist -9.0529
lhand -16.6276 -27.5238
lfingers 7.12502
lthumb 9.59466 2.23773
rfemur -13.5751 -4.15179 5.51523
rtibia 65.0642
rfoot -5.42438 -3.65982
rtoes 17.2923
lfemur 7.79883 1.47411 -32.3949
ltibia 9.4984
lfoot -11.4894 3.66667
ltoes 1.2851
550
root 30.7604 17.0503 -0.811266 804.397 80.4564 811.737
lowerback 8.51156 0.790091 -14.0244
upperback 3.74615 0.155051 -2.99876
thorax -0.799963 0.0645095 4.67622
lowerneck -22.6938 1.7273 2.13316
upperneck 23.92 2.09237 -0.931774
head 11.6125 1.07404 -0.345318
rclavicle 3.90115e-015 9.14409e-015
rhumerus -43.787 -1.55447 -83.9658
rradius 26.6242
rwrist 13.1478
rhand -4.53397 -32.2548
rfingers 7.12502
rthumb 21.2411 -61.111
lclavicle 3.90115e-015 9.14409e-015
lhumerus -18.5621 -15.6134 86.6922
lradius 33.6881
lwrist -8.33041
lhand -16.6234 -27.3917
lfingers 7.12502
lthumb 9.59867 2.36967
rfemur -14.5912 -4.44908 5.53919
rtibia 64.1334
rfoot -6.23357 -3.97443
rtoes 17.5792
lfemur 8.62901 1.58226 -32.4716
ltibia 9.05053
lfoot -11.561 3.44251
ltoes 1.44759
551
root 30.8884 17.0564 -0.818453 805.389 80.4752 812.709
lowerback 8.50097 0.714815 -14.163
upperback 3.78737 0.0514923 -2.90013
thorax -0.728533 0.00417198 4.86618
lowerneck -23.1648 1.5455 1.99806
upperneck 24.329 1.8511 -0.82762
head 11.8536 0.966808 -0.319981
rclavicle 4.84538e-015 4.01545e-014
rhumerus -44.4846 -1.8618 -83.4982
rradius 26.8169
rwrist 12.62
rhand -4.15543 -32.5989
rfingers 7.12502
rthumb 21.6047 -61.4136
lclavicle 4.84538e-015 4.01545e-014
lhumerus -17.7314 -16.3628 86.5167
lradius 34.1243
lwrist -7.74237
lhand -16.5938 -27.3804
lfingers 7.12502
lthumb 9.6273 2.37961
rfemur -15.6674 -4.73353 5.72497
rtibia 63.0527
rfoot -7.0277 -4.29421
rtoes 17.8488
lfemur 9.31188 1.67803 -32.4054
ltibia 8.63838
lfoot -11.6494 3.27799
ltoes 1.99398
552
root 31.0196 17.0602 -0.827726 806.734 80.2087 813.995
lowerback 8.48029 0.62263 -14.5369
upperback 3.77304 -0.093599 -2.90928
thorax -0.697814 -0.0713531 5.07409
lowerneck -22.4317 1.76637 1.82011
upperneck 23.7334 2.07954 -0.28906
head 11.4791 1.12544 -0.0603145
rclavicle -1.51573e-015 -7.95139e-015
rhumerus -45.247 -2.12041 -83.1011
rradius 26.9589
rwrist 12.0313
rhand -3.32493 -33.1464
rfingers 7.12502
rthumb 22.4021 -61.8674
lclavicle -1.51573e-015 -7.95139e-015
lhumerus -17.0044 -16.8581 86.2788
lradius 34.584
lwrist -7.40517
lhand -16.6298 -27.3801
lfingers 7.12502
lthumb 9.59254 2.38155
rfemur -16.6721 -5.08989 5.5208
rtibia 61.8
rfoot -7.94298 -4.47211
rtoes 16.4293
lfemur 9.88742 1.72439 -32.7383
ltibia 8.34061
lfoot -11.7789 3.1791
ltoes 2.17949
553
root 31.152 17.0644 -0.838277 808.198 79.7679 815.395
lowerback 8.55715 0.526253 -15.0473
upperback 3.67394 -0.28185 -2.98558
thorax -0.799489 -0.155427 5.28899
lowerneck -22.3697 1.77814 2.09535
upperneck 24.0038 2.09215 -0.573512
head 11.5775 1.12291 -0.207869
rclavicle -1.11816e-015 2.0276e-014
rhumerus -46.1512 -2.27148 -82.8186
rradius 27.1417
rwrist 11.2203
rhand -3.06008 -33.4361
rfingers 7.12502
rthumb 22.6563 -62.1263
lclavicle -1.11816e-015 2.0276e-014
lhumerus -16.5264 -17.2976 86.0465
lradius 35.1623
lwrist -6.98526
lhand -16.5607 -27.3537
lfingers 7.12502
lthumb 9.65924 2.40483
rfemur -17.575 -5.52054 5.10095
rtibia 60.5213
rfoot -8.95412 -4.55912
rtoes 14.3665
lfemur 10.4424 1.74536 -33.2949
ltibia 8.03489
lfoot -11.9964 2.93327
ltoes 1.38521
554
root 31.2784 17.0648 -0.853829 809.355 79.9749 816.541
lowerback 8.75165 0.391755 -14.8354
upperback 3.57125 -0.497639 -2.90471
thorax -0.98008 -0.24788 5.28027
lowerneck -22.2426 1.8268 2.23177
upperneck 24.0912 2.11032 -0.535476
head 11.5881 1.15148 -0.213852
rclavicle 3.15571e-015 5.08889e-014
rhumerus -47.017 -2.31458 -82.6026
rradius 27.3203
rwrist 10.5709
rhand -3.4309 -33.431
rfingers 7.12502
rthumb 22.3004 -62.1641
lclavicle 3.15571e-015 5.08889e-014
lhumerus -16.2055 -17.6155 85.7741
lradius 35.9013
lwrist -6.6525
lhand -16.4577 -27.4025
lfingers 7.12502
lthumb 9.75862 2.35136
rfemur -18.3063 -5.74525 5.44199
rtibia 58.7978
rfoot -9.71817 -4.73537
rtoes 13.5337
lfemur 11.0825 1.75276 -33.088
ltibia 7.71345
lfoot -12.1543 2.61824
ltoes 0.111646
555
root 31.4021 17.0598 -0.878619 810.765 80.4976 818.004
lowerback 8.91199 0.220834 -14.1302
upperback 3.60498 -0.698887 -2.76339
thorax -1.01107 -0.347068 5.06416
lowerneck -22.484 1.9507 2.68274
upperneck 24.4113 2.25474 -0.982803
head 11.7721 1.20047 -0.42809
rclavicle -3.55328e-015 -3.37934e-014
rhumerus -47.5459 -2.39589 -82.3251
rradius 27.3024
rwrist 10.2439
rhand -3.71536 -33.2707
rfingers 7.12502
rthumb 22.0273 -62.0363
lclavicle -3.55328e-015 -3.37934e-014
lhumerus -15.6621 -17.8222 85.4713
lradius 36.6303
lwrist -6.40618
lhand -16.4634 -27.4202
lfingers 7.12502
lthumb 9.75307 2.33392
rfemur -18.8549 -6.04514 6.12105
rtibia 56.9951
rfoot -10.4945 -4.9583
rtoes 11.9865
lfemur 11.8054 1.72991 -32.5899
ltibia 7.44218
lfoot -12.222 2.45495
ltoes -1.01095
556
root 31.5361 17.0528 -0.891325 811.933 80.6152 819.221
lowerback 8.95505 0.137982 -13.9528
upperback 3.67707 -0.793677 -2.68544
thorax -0.943449 -0.401323 5.05818
lowerneck -22.8534 1.85161 2.64856
upperneck 24.7302 2.15047 -1.07978
head 11.9657 1.13744 -0.472614
rclavicle -1.52816e-014 -1.98785e-014
rhumerus -47.952 -2.4935 -82.0341
rradius 27.119
rwrist 9.70979
rhand -3.90647 -33.1134
rfingers 7.12502
rthumb 21.8438 -61.9006
lclavicle -1.52816e-014 -1.98785e-014
lhumerus -14.9867 -18.1417 85.2682
lradius 37.2229
lwrist -5.9361
lhand -16.4194 -27.3879
lfingers 7.12502
lthumb 9.79553 2.36431
rfemur -19.3164 -6.07803 6.31712
rtibia 54.7489
rfoot -10.8346 -5.30982
rtoes 13.8746
lfemur 12.5011 1.71716 -32.4845
ltibia 7.19283
lfoot -12.3733 2.46328
ltoes -1.45605
